<?xml version="1.0" encoding="UTF-8"?>
<svg width="260" height="40" viewBox="0 0 260 40" fill="none" xmlns="http://www.w3.org/2000/svg">
  <defs>
    <linearGradient id="g" x1="0" y1="0" x2="1" y2="1">
      <stop stop-color="#67E8F9"/>
      <stop offset="1" stop-color="#6366F1"/>
    </linearGradient>
  </defs>

  <!-- Icon -->
  <rect x="1" y="1" width="38" height="38" rx="10"
        fill="rgba(255,255,255,0.06)"
        stroke="rgba(255,255,255,0.18)"/>

  <!-- R -->
  <path d="M16 30V10"
        stroke="url(#g)" stroke-width="3.5" stroke-linecap="round"/>
  <path d="M16 10H22.5C27 10 29.5 12.5 29.5 16.5C29.5 20.5 27 23 22.5 23H16"
        stroke="url(#g)" stroke-width="3.5"
        stroke-linecap="round" stroke-linejoin="round"/>
  <path d="M18.5 23L30 30"
        stroke="url(#g)" stroke-width="3.5" stroke-linecap="round"/>

  <!-- Text: respins.ro -->
  <g fill="white">
    <path d="M56 30V14h8c5.5 0 9 3.2 9 8s-3.5 8-9 8h-8zm4.5-4h3c3 0 5-1.8 5-4s-2-4-5-4h-3v8z"/>
    <path d="M79 30V14h4.5v3.2c.8-2.2 2.6-3.4 5-3.4h.8v4.4c-.4-.1-.8-.1-1.2-.1-2.6 0-4.6 1.6-4.6 4.3V30H79z"/>
    <path d="M92 22c0-5.1 3.4-8.5 8.5-8.5s8.3 3.4 8.3 8.7v1.3H96.5c.3 2.4 2 3.8 4.1 3.8 1.7 0 3-.7 3.6-1.8h4.3c-.9 3.4-4 5.5-8 5.5-5.2 0-8.5-3.4-8.5-9zm4.5-1.2h7c-.2-2.1-1.6-3.4-3.5-3.4s-3.3 1.3-3.5 3.4z"/>
    <path d="M112 30V14h4.5v3c1.1-2.2 3.3-3.5 6-3.5 4.1 0 6.6 2.6 6.6 7V30h-4.5v-8.3c0-2.6-1.3-4-3.6-4-2.5 0-4.5 1.8-4.5 4.4V30H112z"/>
    <path d="M133 25.6h4.2c.2 1.3 1.3 2.1 3.2 2.1 1.9 0 3-.6 3-1.6 0-.8-.6-1.3-2.4-1.6l-2.7-.6c-3.8-.7-5.5-2.2-5.5-4.8 0-3.3 2.8-5.3 7-5.3 4.2 0 6.9 2 7.1 5.4h-4.1c-.2-1.3-1.2-2-3-2-1.7 0-2.8.6-2.8 1.6 0 .7.5 1.2 2 1.5l3 .7c4 .8 5.6 2.3 5.6 4.9 0 3.3-2.9 5.4-7.4 5.4-4.6 0-7.5-2.1-7.8-5.4z"/>
  </g>

  <g fill="#A5B4FC">
    <circle cx="199" cy="27.5" r="2.5"/>
    <path d="M205 30V14h4.5v3.2c.8-2.2 2.6-3.4 5-3.4h.8v4.4c-.4-.1-.8-.1-1.2-.1-2.6 0-4.6 1.6-4.6 4.3V30H205z"/>
    <path d="M217 22c0-5 3.4-8.5 8.3-8.5s8.3 3.5 8.3 8.5-3.4 8.5-8.3 8.5-8.3-3.5-8.3-8.5zm12.1 0c0-2.9-1.5-4.6-3.8-4.6s-3.8 1.7-3.8 4.6 1.5 4.6 3.8 4.6 3.8-1.7 3.8-4.6z"/>
  </g>
</svg>
